<svg width="69" height="50" fill="none" xmlns="http://www.w3.org/2000/svg"><path d="M17.73 22.759c10.248 1.154 34.33 11.575 38.13 26.252H6.693c12.48-.917 23.142-15.503 11.038-26.252Zm4.014-17.2c4.051 4.028 5.983 9.494 5.82 15.117 10.398 3.814 26.001 13.998 29.3 28.335h12.041C63.8 24.558 34.638 7.313 21.744 5.559Z" fill="#3E459A" fill-opacity=".6"/><path d="M11.5 17.2c10.248 1.154 34.33 11.576 38.131 26.252H.463C12.943 42.535 23.605 27.95 11.5 17.2ZM15.515 0c4.052 4.028 5.983 9.494 5.82 15.118 10.398 3.813 26.002 13.997 29.3 28.334h12.042C57.57 18.999 28.408 1.754 15.514 0Z" fill="#2D3691"/></svg>